<svg xmlns:dc="http://purl.org/dc/elements/1.1/" xmlns:cc="http://creativecommons.org/ns#" xmlns:rdf="http://www.w3.org/1999/02/22-rdf-syntax-ns#" xmlns:svg="http://www.w3.org/2000/svg" xmlns="http://www.w3.org/2000/svg" xmlns:sodipodi="http://sodipodi.sourceforge.net/DTD/sodipodi-0.dtd" xmlns:inkscape="http://www.inkscape.org/namespaces/inkscape" version="1.1" xml:space="preserve" sodipodi:docname="cesium.svg" width="465" height="564" inkscape:version="1.0.1 (3bc2e813f5, 2020-09-07, custom)" style=""><rect id="backgroundrect" width="100%" height="100%" x="0" y="0" fill="none" stroke="none"/><metadata id="metadata80"><rdf:RDF><cc:Work rdf:about=""><dc:format>image/svg+xml</dc:format><dc:type rdf:resource="http://purl.org/dc/dcmitype/StillImage"/><dc:title/></cc:Work></rdf:RDF></metadata><defs id="defs78"/><sodipodi:namedview pagecolor="#ffffff" bordercolor="#666666" borderopacity="1" objecttolerance="10" gridtolerance="10" guidetolerance="10" inkscape:pageopacity="0" inkscape:pageshadow="2" inkscape:window-width="1640" inkscape:window-height="956" id="namedview76" showgrid="false" inkscape:zoom="0.507" inkscape:cx="847.75" inkscape:cy="287.66" inkscape:window-x="1940" inkscape:window-y="47" inkscape:window-maximized="0" inkscape:current-layer="Layer_1"/>
<style type="text/css" id="style55">
	.st0{fill:#F47C58;}
</style>

<g class="currentLayer" style=""><title>Layer 1</title><g id="g73" class="">
	<g id="g69">
		<path d="m744.9546435767412,252.28135969842504 c0,-14.695335078835488 -12.505122592449188,-23.508614755868912 -25.706004973053933,-23.508614755868912 h-22.932242617607116 c-14.249160461425781,0 -25.71528177022934,12.12683755338192 -25.71528177022934,27.17509595632553 v63.8791216635704 c0,15.067865254282951 11.466121308803558,27.91035288155079 25.71528177022934,27.91035288155079 h22.932242617607116 c14.239883664250373,0 25.706004973053933,-6.617312327027321 25.706004973053933,-23.508614755868912 h22.23648282945156 c0,20.56758705496788 -13.553400673270225,46.2721691608429 -46.56024502336979,46.2721691608429 h-25.71528177022934 c-26.40176476120949,0 -46.55096822619438,-22.400827655196192 -46.55096822619438,-50.30137711107731 v-63.50659148812294 c0,-27.91035288155079 21.540723041296005,-50.67390728652477 47.94248780250549,-50.67390728652477 h22.932242617607116 c26.058523265719412,0 47.94248780250549,19.822526704072953 47.94248780250549,46.2721691608429 h-22.227206032276154 z" id="path57"/>
		<path class="st0" d="m829.0302563774586,300.73969278360437 v22.018494054079056 c0,15.430592004060745 13.553400673270225,24.979128606319428 27.450042842030523,24.979128606319428 h23.971243901252745 c10.770361520648002,0 18.061924100518226,-4.411541551351547 21.188204748630522,-16.89130242884159 h23.2847609102726 c-5.213560012578965,22.028297479748726 -21.540723041296005,39.65485683381558 -44.12044736623764,39.65485683381558 h-26.40176476120949 c-26.40176476120949,0 -47.59924630701542,-20.56758705496788 -47.59924630701542,-48.468136510849 v-66.09469586491585 c0,-27.90054945588112 21.549999838471415,-49.92884693562984 47.94248780250549,-49.92884693562984 h23.628002405762672 c26.40176476120949,0 48.295006095170976,22.763554404973984 48.295006095170976,50.67390728652477 v44.05659495949745 zm75.40180744171143,-45.52710880994797 c0,-15.067865254282951 -12.161881096959114,-26.439839031100274 -26.067800062894822,-26.439839031100274 H855.088779643178 c-14.258437258601187,0 -26.067800062894822,11.381777202486992 -26.067800062894822,26.439839031100274 v23.126281154751776 h75.40180744171143 v-23.126281154751776 z" id="path59"/>
		<path d="m1049.3078053075074,370.50086984897683 h-47.9517645996809 c-20.501721757650376,0 -36.81960798919201,-17.62655935406685 -36.47636649370194,-39.65485683381558 h21.893241333961488 c0.3525182926654817,9.548536602258682 6.94832108438015,16.89130242884159 16.679681321382525,16.89130242884159 h46.1984499335289 c9.044877246022224,0 15.640680037736892,-7.715296002030373 15.640680037736892,-17.254029178619387 v-15.067865254282951 c0,-9.538733176589012 -6.595802791714669,-16.51877225339413 -15.640680037736892,-16.51877225339413 h-44.12044736623764 c-21.5314462441206,0 -36.82888478636742,-17.254029178619387 -36.82888478636742,-40.02738700926304 v-12.842487627267838 c0,-23.13608458042145 17.37544110953808,-40.01758358359337 38.57292265534401,-40.01758358359337 H1043.4077623039484 c21.188204748630522,0 38.22040436267853,19.097073204517365 38.22040436267853,40.39011375904084 h-22.24575962662697 c0,-9.185809852480888 -6.595802791714669,-17.62655935406685 -17.36616431236267,-17.62655935406685 h-35.446642007231716 c-9.02632365167141,0 -15.631403240561486,6.970235651135445 -15.631403240561486,16.51877225339413 v13.96007815361023 c0,9.538733176589012 6.605079588890076,16.88149900317192 15.631403240561486,16.88149900317192 h44.82548395156861 c21.540723041296005,0 36.13312499821186,16.89130242884159 36.13312499821186,39.645053408145905 v14.695335078835488 c-0.009276797175407412,22.773357830643654 -16.679681321382525,40.02738700926304 -38.22040436267853,40.02738700926304 z" id="path61"/>
		<path d="m1128.5223763883114,169.29536140466757 v-27.17509595632553 h25.71528177022934 v27.17509595632553 zm1.7347610718011857,198.98993424296378 V208.9502182384832 h22.227206032276154 v159.34488083481787 h-22.227206032276154 z" id="path63"/>
		<path d="m1221.6150360435247,208.9502182384832 v112.71978834986687 c0,15.058061828613281 10.788915114998819,26.07711228132248 25.028798779249193,26.07711228132248 h26.40176476120949 c13.905918965935708,0 25.71528177022934,-8.813279677033425 25.71528177022934,-24.2340682554245 V208.9502182384832 h22.24575962662697 v159.34488083481787 h-22.24575962662697 v-11.744503952264786 c-7.634804075360298,8.078022751808167 -14.592401956915856,13.96007815361023 -29.528045409321784,13.96007815361023 h-22.932242617607116 c-26.40176476120949,0 -46.903486518859864,-22.038100905418396 -46.903486518859864,-49.92884693562984 V208.9502182384832 z" id="path65"/>
		<path d="m1435.9832651728393,228.7727449425561 h-23.266207315921783 c-13.553400673270225,0 -25.372040274739266,9.548536602258682 -25.372040274739266,24.979128606319428 v114.54322552442551 h-22.227206032276154 V208.9502182384832 h22.227206032276154 v11.754307377934456 c7.653357669711113,-8.078022751808167 14.601678754091264,-14.695335078835488 29.194080711007118,-14.695335078835488 h20.501721757650376 c7.634804075360298,0 22.579724324941633,5.872251976132393 33.70260413825512,18.724543029069903 c11.809362804293633,-13.587547978162766 20.835686455965043,-18.724543029069903 37.515367777347564,-18.724543029069903 h18.05264730334282 c25.71528177022934,0 46.5695218205452,22.038100905418396 46.5695218205452,49.56612018585205 v112.7099849241972 h-22.24575962662697 V255.5753107234342 c0,-15.058061828613281 -9.731360237002374,-26.81236920654774 -23.618725608587265,-26.81236920654774 h-19.79668517231941 c-14.601678754091264,0 -25.71528177022934,11.019050452709198 -25.71528177022934,26.07711228132248 v113.44524184942246 h-22.24575962662697 V255.21258397365642 c0.009276797175407412,-14.685531653165818 -10.761084723472594,-25.33205193042755 -23.27548411309719,-26.439839031100274 z" id="path67"/>
	</g>
	<path class="st0" d="m146.8795296782255,321.15042502785747 l-67.25677952170372,-41.01753300189972 v-82.07427970647812 l146.8516992866993,89.60331062078477 v82.07427970647812 zm18.55359435081482,-280.10347823381426 l67.25677952170372,-41.04694327890873 l226.44661905169485,138.19889166533946 l-226.4744494432211,138.14987453699112 l-146.8609760838747,-89.60331062078477 l67.25677952170372,-41.02733642756939 l79.60419656217098,48.5661707675457 l91.97944399416447,-56.08539825618267 zm-12.35669383764267,7.509424062967301 l146.84242248952387,89.63272089779377 l-67.25677952170372,41.02733642756939 l-79.60419656217098,-48.575974193215366 l-79.60419656217098,48.575974193215366 l-67.25677952170372,-41.02733642756939 zm-153.07643019139766,100.9360706949234 l67.25677952170372,41.02733642756939 v97.1617518121004 l79.62275015652179,48.5661707675457 l-0.018553594350814825,82.07427970647812 l-146.8609760838747,-89.6229174721241 zm0,194.28428992152215 l159.20839312434197,97.1617518121004 l0.03710718870162965,-97.1617518121004 l67.2289491301775,41.02733642756939 V564.0204925682647 L0,425.85101117993423 zM238.81258968651295,564.0008857169254 V384.82367475236487 l146.87952967822554,-89.61311404645443 v82.05467285513878 l-79.62275015652179,48.58577761888504 v97.11273468375207 zM465.3055927240849,425.8117974772556 L318.43533984303474,515.42491152371 V433.3898455199105 L465.3055927240849,343.76692804778645 zm-67.2475027245283,-56.08539825618267 v-74.52564194083213 l61.07843260288239,37.2530175447464 zm67.2475027245283,-138.1792848140001 l-226.49300303757192,138.1792848140001 l0.03710718870162965,-82.07427970647812 l226.45589584887028,-138.16948138833047 z" id="path71"/>
</g></g></svg>